<mxfile host="app.diagrams.net" modified="2021-10-08T23:19:15.543Z" agent="5.0 (Windows NT 10.0; Win64; x64) AppleWebKit/537.36 (KHTML, like Gecko) Chrome/94.0.4606.81 Safari/537.36" etag="9OwW6ZE_DQ9e2GEZKJ5C" version="14.9.8" type="github">
  <diagram id="R2lEEEUBdFMjLlhIrx00" name="Page-1">
    <mxGraphModel dx="868" dy="492" grid="1" gridSize="10" guides="1" tooltips="1" connect="1" arrows="1" fold="1" page="1" pageScale="1" pageWidth="850" pageHeight="1100" math="0" shadow="0" extFonts="Permanent Marker^https://fonts.googleapis.com/css?family=Permanent+Marker">
      <root>
        <mxCell id="0" />
        <mxCell id="1" parent="0" />
        <mxCell id="0Pmb99-iy4W9XxXNkkwj-1" value="Estacionamento" style="rounded=1;whiteSpace=wrap;html=1;fontSize=12;glass=0;strokeWidth=1;shadow=0;" vertex="1" parent="1">
          <mxGeometry x="513.6000000000001" y="100" width="120" height="40" as="geometry" />
        </mxCell>
        <mxCell id="0Pmb99-iy4W9XxXNkkwj-2" value="Possui" style="rhombus;whiteSpace=wrap;html=1;shadow=0;fontFamily=Helvetica;fontSize=12;align=center;strokeWidth=1;spacing=6;spacingTop=-4;" vertex="1" parent="1">
          <mxGeometry x="346.40000000000003" y="280" width="100" height="80" as="geometry" />
        </mxCell>
        <mxCell id="0Pmb99-iy4W9XxXNkkwj-3" value="Vaga" style="rounded=1;whiteSpace=wrap;html=1;fontSize=12;glass=0;strokeWidth=1;shadow=0;" vertex="1" parent="1">
          <mxGeometry x="162.79999999999993" y="100" width="120" height="40" as="geometry" />
        </mxCell>
        <mxCell id="0Pmb99-iy4W9XxXNkkwj-4" value="Ocupa" style="rhombus;whiteSpace=wrap;html=1;shadow=0;fontFamily=Helvetica;fontSize=12;align=center;strokeWidth=1;spacing=6;spacingTop=-4;" vertex="1" parent="1">
          <mxGeometry x="169.99999999999991" y="180" width="100" height="80" as="geometry" />
        </mxCell>
        <mxCell id="0Pmb99-iy4W9XxXNkkwj-5" value="Avulso" style="rounded=1;whiteSpace=wrap;html=1;fontSize=12;glass=0;strokeWidth=1;shadow=0;" vertex="1" parent="1">
          <mxGeometry x="422.8" y="460" width="120" height="40" as="geometry" />
        </mxCell>
        <mxCell id="0Pmb99-iy4W9XxXNkkwj-6" value="Carro" style="rounded=1;whiteSpace=wrap;html=1;fontSize=12;glass=0;strokeWidth=1;shadow=0;" vertex="1" parent="1">
          <mxGeometry x="159.99999999999991" y="300" width="120" height="40" as="geometry" />
        </mxCell>
        <mxCell id="0Pmb99-iy4W9XxXNkkwj-7" value="Cliente" style="rounded=1;whiteSpace=wrap;html=1;" vertex="1" parent="1">
          <mxGeometry x="509.2" y="300" width="116" height="40" as="geometry" />
        </mxCell>
        <mxCell id="0Pmb99-iy4W9XxXNkkwj-8" value="Mensalista" style="rounded=1;whiteSpace=wrap;html=1;fontSize=12;glass=0;strokeWidth=1;shadow=0;" vertex="1" parent="1">
          <mxGeometry x="591.6099999999999" y="460" width="120" height="40" as="geometry" />
        </mxCell>
        <mxCell id="0Pmb99-iy4W9XxXNkkwj-9" value="" style="line;strokeWidth=2;html=1;" vertex="1" parent="1">
          <mxGeometry x="446.40000000000003" y="315" width="63.6" height="10" as="geometry" />
        </mxCell>
        <mxCell id="0Pmb99-iy4W9XxXNkkwj-10" value="" style="strokeWidth=2;html=1;shape=mxgraph.flowchart.extract_or_measurement;whiteSpace=wrap;" vertex="1" parent="1">
          <mxGeometry x="545.4300000000001" y="380" width="45.5" height="30" as="geometry" />
        </mxCell>
        <mxCell id="0Pmb99-iy4W9XxXNkkwj-11" value="" style="strokeWidth=2;html=1;shape=mxgraph.flowchart.annotation_2;align=left;labelPosition=right;pointerEvents=1;rotation=90;" vertex="1" parent="1">
          <mxGeometry x="545.4300000000001" y="352.13" width="46.18" height="161.43" as="geometry" />
        </mxCell>
        <mxCell id="0Pmb99-iy4W9XxXNkkwj-12" value="" style="line;strokeWidth=2;direction=south;html=1;" vertex="1" parent="1">
          <mxGeometry x="563.1800000000001" y="340" width="10" height="40" as="geometry" />
        </mxCell>
        <mxCell id="0Pmb99-iy4W9XxXNkkwj-13" value="Pertence" style="rhombus;whiteSpace=wrap;html=1;shadow=0;fontFamily=Helvetica;fontSize=12;align=center;strokeWidth=1;spacing=6;spacingTop=-4;" vertex="1" parent="1">
          <mxGeometry x="346.4000000000001" y="80" width="100" height="80" as="geometry" />
        </mxCell>
        <mxCell id="0Pmb99-iy4W9XxXNkkwj-14" value="" style="line;strokeWidth=2;direction=south;html=1;" vertex="1" parent="1">
          <mxGeometry x="215.00000000000006" y="140" width="11.4" height="40" as="geometry" />
        </mxCell>
        <mxCell id="0Pmb99-iy4W9XxXNkkwj-15" value="" style="line;strokeWidth=2;direction=south;html=1;" vertex="1" parent="1">
          <mxGeometry x="215.00000000000006" y="260" width="10" height="40" as="geometry" />
        </mxCell>
        <mxCell id="0Pmb99-iy4W9XxXNkkwj-16" value="" style="line;strokeWidth=2;html=1;" vertex="1" parent="1">
          <mxGeometry x="282.8" y="315" width="63.6" height="10" as="geometry" />
        </mxCell>
        <mxCell id="0Pmb99-iy4W9XxXNkkwj-17" value="Manobrista" style="rounded=1;whiteSpace=wrap;html=1;fontSize=12;glass=0;strokeWidth=1;shadow=0;" vertex="1" parent="1">
          <mxGeometry x="160.0000000000001" y="530" width="120" height="40" as="geometry" />
        </mxCell>
        <mxCell id="0Pmb99-iy4W9XxXNkkwj-18" value="" style="line;strokeWidth=2;html=1;" vertex="1" parent="1">
          <mxGeometry x="282.8" y="115" width="63.6" height="10" as="geometry" />
        </mxCell>
        <mxCell id="0Pmb99-iy4W9XxXNkkwj-19" value="" style="line;strokeWidth=2;html=1;" vertex="1" parent="1">
          <mxGeometry x="450" y="100" width="63.6" height="40" as="geometry" />
        </mxCell>
        <mxCell id="0Pmb99-iy4W9XxXNkkwj-20" value="Estaciona" style="rhombus;whiteSpace=wrap;html=1;shadow=0;fontFamily=Helvetica;fontSize=12;align=center;strokeWidth=1;spacing=6;spacingTop=-4;" vertex="1" parent="1">
          <mxGeometry x="170" y="380" width="100" height="75" as="geometry" />
        </mxCell>
        <mxCell id="0Pmb99-iy4W9XxXNkkwj-21" value="" style="line;strokeWidth=2;direction=south;html=1;" vertex="1" parent="1">
          <mxGeometry x="215.7" y="455" width="10" height="75" as="geometry" />
        </mxCell>
        <mxCell id="0Pmb99-iy4W9XxXNkkwj-22" value="" style="line;strokeWidth=2;direction=south;html=1;" vertex="1" parent="1">
          <mxGeometry x="215.00000000000006" y="340" width="10" height="40" as="geometry" />
        </mxCell>
        <mxCell id="0Pmb99-iy4W9XxXNkkwj-23" value="" style="shape=partialRectangle;whiteSpace=wrap;html=1;bottom=0;right=0;fillColor=none;rotation=-90;" vertex="1" parent="1">
          <mxGeometry x="-117.5" y="280" width="495" height="60" as="geometry" />
        </mxCell>
        <mxCell id="0Pmb99-iy4W9XxXNkkwj-24" value="Trabalha" style="rhombus;whiteSpace=wrap;html=1;shadow=0;fontFamily=Helvetica;fontSize=12;align=center;strokeWidth=1;spacing=6;spacingTop=-4;" vertex="1" parent="1">
          <mxGeometry x="60" y="30" width="80" height="50" as="geometry" />
        </mxCell>
        <mxCell id="0Pmb99-iy4W9XxXNkkwj-25" value="" style="shape=partialRectangle;whiteSpace=wrap;html=1;bottom=0;right=0;fillColor=none;rotation=90;" vertex="1" parent="1">
          <mxGeometry x="335" y="-145" width="50" height="440" as="geometry" />
        </mxCell>
        <mxCell id="0Pmb99-iy4W9XxXNkkwj-26" value="Comprovante Avulso" style="rounded=1;whiteSpace=wrap;html=1;fontSize=12;glass=0;strokeWidth=1;shadow=0;" vertex="1" parent="1">
          <mxGeometry x="162.8000000000001" y="760" width="120" height="40" as="geometry" />
        </mxCell>
        <mxCell id="0Pmb99-iy4W9XxXNkkwj-27" style="edgeStyle=orthogonalEdgeStyle;rounded=0;orthogonalLoop=1;jettySize=auto;html=1;exitX=0.5;exitY=1;exitDx=0;exitDy=0;" edge="1" parent="1" source="0Pmb99-iy4W9XxXNkkwj-26" target="0Pmb99-iy4W9XxXNkkwj-26">
          <mxGeometry relative="1" as="geometry" />
        </mxCell>
        <mxCell id="0Pmb99-iy4W9XxXNkkwj-28" value="Registra" style="rhombus;whiteSpace=wrap;html=1;shadow=0;fontFamily=Helvetica;fontSize=12;align=center;strokeWidth=1;spacing=6;spacingTop=-4;" vertex="1" parent="1">
          <mxGeometry x="170" y="630" width="100" height="75" as="geometry" />
        </mxCell>
        <mxCell id="0Pmb99-iy4W9XxXNkkwj-29" value="" style="line;strokeWidth=2;direction=south;html=1;" vertex="1" parent="1">
          <mxGeometry x="217.1" y="570" width="11.4" height="60" as="geometry" />
        </mxCell>
        <mxCell id="0Pmb99-iy4W9XxXNkkwj-30" value="" style="line;strokeWidth=2;direction=south;html=1;" vertex="1" parent="1">
          <mxGeometry x="214.3" y="705" width="11.4" height="55" as="geometry" />
        </mxCell>
        <mxCell id="0Pmb99-iy4W9XxXNkkwj-31" value="Entregue" style="rhombus;whiteSpace=wrap;html=1;shadow=0;fontFamily=Helvetica;fontSize=12;align=center;strokeWidth=1;spacing=6;spacingTop=-4;" vertex="1" parent="1">
          <mxGeometry x="428.2" y="742.5" width="100" height="75" as="geometry" />
        </mxCell>
        <mxCell id="0Pmb99-iy4W9XxXNkkwj-32" value="" style="line;strokeWidth=2;html=1;" vertex="1" parent="1">
          <mxGeometry x="280" y="760" width="150" height="40" as="geometry" />
        </mxCell>
        <mxCell id="0Pmb99-iy4W9XxXNkkwj-33" value="" style="line;strokeWidth=2;direction=south;html=1;" vertex="1" parent="1">
          <mxGeometry x="473.2" y="500" width="10" height="240" as="geometry" />
        </mxCell>
      </root>
    </mxGraphModel>
  </diagram>
</mxfile>
